<mxfile host="app.diagrams.net" modified="2022-09-08T04:52:26.071Z" agent="5.0 (Windows NT 10.0; Win64; x64) AppleWebKit/537.36 (KHTML, like Gecko) Chrome/105.0.0.0 Safari/537.36" etag="2GP6LkU-ywPgsfu6YA1s" version="20.2.8" type="github">
  <diagram id="OtyMaAnL-FrPIai-ARFm" name="第 1 页">
    <mxGraphModel dx="1209" dy="554" grid="1" gridSize="10" guides="1" tooltips="1" connect="1" arrows="1" fold="1" page="1" pageScale="1" pageWidth="827" pageHeight="1169" math="0" shadow="0">
      <root>
        <mxCell id="0" />
        <mxCell id="1" parent="0" />
        <mxCell id="JXpsTJuIVh_c73E53Oes-1" value="&lt;font face=&quot;Times New Roman&quot; style=&quot;font-size: 20px;&quot;&gt;Data set&lt;/font&gt;" style="rounded=0;whiteSpace=wrap;html=1;fillColor=#ffe6cc;strokeColor=#d79b00;" vertex="1" parent="1">
          <mxGeometry x="70" y="118" width="130" height="80" as="geometry" />
        </mxCell>
        <mxCell id="JXpsTJuIVh_c73E53Oes-2" value="" style="shape=singleArrow;whiteSpace=wrap;html=1;fontFamily=Times New Roman;fontSize=20;" vertex="1" parent="1">
          <mxGeometry x="200" y="130" width="100" height="60" as="geometry" />
        </mxCell>
        <mxCell id="JXpsTJuIVh_c73E53Oes-3" value="&lt;font face=&quot;Times New Roman&quot; style=&quot;font-size: 20px;&quot;&gt;learn the dynamical system&lt;/font&gt;" style="rounded=0;whiteSpace=wrap;html=1;fillColor=#ffe6cc;strokeColor=#d79b00;" vertex="1" parent="1">
          <mxGeometry x="301" y="120" width="130" height="80" as="geometry" />
        </mxCell>
        <mxCell id="JXpsTJuIVh_c73E53Oes-4" value="" style="shape=singleArrow;whiteSpace=wrap;html=1;fontFamily=Times New Roman;fontSize=20;" vertex="1" parent="1">
          <mxGeometry x="431" y="130" width="100" height="60" as="geometry" />
        </mxCell>
        <mxCell id="JXpsTJuIVh_c73E53Oes-6" value="Prediction" style="rounded=1;whiteSpace=wrap;html=1;fontFamily=Times New Roman;fontSize=20;fillColor=#d5e8d4;strokeColor=#82b366;" vertex="1" parent="1">
          <mxGeometry x="531" y="113" width="170" height="90" as="geometry" />
        </mxCell>
      </root>
    </mxGraphModel>
  </diagram>
</mxfile>
